<?xml version="1.0" standalone="no"?>
<!DOCTYPE svg PUBLIC "-//W3C//DTD SVG 20010904//EN"
 "http://www.w3.org/TR/2001/REC-SVG-20010904/DTD/svg10.dtd">
<svg version="1.0" xmlns="http://www.w3.org/2000/svg"
 width="225.000000pt" height="225.000000pt" viewBox="0 0 225.000000 225.000000"
 preserveAspectRatio="xMidYMid meet">

<g transform="translate(0.000000,225.000000) scale(0.100000,-0.100000)"
fill="#000000" stroke="none">
<path d="M1028 1853 c12 -2 30 -2 40 0 9 3 -1 5 -23 4 -22 0 -30 -2 -17 -4z"/>
<path d="M880 1840 c-28 -5 -22 -7 32 -8 37 0 70 3 73 9 7 10 -52 10 -105 -1z"/>
<path d="M1120 1841 c0 -5 10 -7 23 -4 18 4 19 3 7 -6 -12 -9 -10 -10 10 -7
14 3 32 5 40 6 8 1 2 6 -15 10 -43 11 -65 11 -65 1z"/>
<path d="M1044 1825 c2 -7 -1 -18 -7 -25 -9 -10 -9 -11 0 -6 7 4 17 15 22 25
8 13 6 18 -5 18 -8 0 -13 -6 -10 -12z"/>
<path d="M775 1824 c-5 -1 -31 -5 -57 -9 -41 -5 -48 -10 -48 -28 0 -17 2 -19
9 -8 11 17 69 17 85 0 8 -8 8 -13 -1 -16 -7 -3 -13 -21 -13 -42 0 -35 3 -39
38 -49 20 -6 66 -16 102 -22 36 -6 72 -13 81 -16 14 -4 16 2 12 38 -6 64 5 74
62 58 26 -7 54 -13 61 -13 8 0 14 -4 14 -9 0 -4 5 -8 11 -8 5 0 8 4 5 9 -6 8
59 22 274 58 l105 17 -90 17 c-129 24 -184 29 -190 19 -6 -10 15 -16 70 -23
18 -3 8 -5 -25 -7 -47 -2 -51 -3 -25 -10 28 -7 28 -8 -12 -9 -23 0 -53 3 -66
8 -19 8 -27 6 -31 -5 -3 -8 -16 -14 -30 -14 -28 0 -43 15 -24 24 7 3 4 4 -7 2
-82 -18 -107 -18 -119 -1 -9 13 -23 16 -49 13 -20 -2 -37 0 -37 4 0 4 23 8 52
8 28 0 49 2 47 4 -5 4 -191 14 -204 10z m182 -79 c8 2 11 0 8 -5 -3 -6 0 -10
7 -11 10 0 10 -2 0 -6 -6 -2 -9 -10 -6 -15 5 -8 -7 -9 -37 -4 -126 19 -169 29
-169 37 0 5 5 9 10 9 6 0 10 6 10 14 0 11 15 10 82 -6 45 -10 88 -16 95 -13z"/>
<path d="M796 1746 c5 -12 20 -16 58 -15 l51 1 -47 8 c-26 5 -52 11 -57 15 -7
3 -8 0 -5 -9z"/>
<path d="M688 1770 c-2 -6 -14 -12 -26 -13 -19 -1 -22 -5 -17 -27 8 -29 5 -26
30 -34 18 -5 20 -1 20 39 0 47 -1 52 -7 35z"/>
<path d="M1040 1699 c0 -5 5 -7 10 -4 6 3 10 8 10 11 0 2 -4 4 -10 4 -5 0 -10
-5 -10 -11z"/>
<path d="M1040 1651 c0 -24 5 -29 31 -35 59 -12 65 -9 61 27 -3 30 -6 32 -48
35 -42 2 -44 1 -44 -27z"/>
<path d="M1455 1660 c-25 -11 1 -11 35 0 20 6 21 8 5 8 -11 0 -29 -3 -40 -8z"/>
<path d="M1358 1643 c6 -2 18 -2 25 0 6 3 1 5 -13 5 -14 0 -19 -2 -12 -5z"/>
<path d="M1298 1633 c7 -3 16 -2 19 1 4 3 -2 6 -13 5 -11 0 -14 -3 -6 -6z"/>
<path d="M1238 1623 c6 -2 18 -2 25 0 6 3 1 5 -13 5 -14 0 -19 -2 -12 -5z"/>
<path d="M888 1543 c6 -2 18 -2 25 0 6 3 1 5 -13 5 -14 0 -19 -2 -12 -5z"/>
<path d="M968 1533 c6 -2 18 -2 25 0 6 3 1 5 -13 5 -14 0 -19 -2 -12 -5z"/>
<path d="M1048 1523 c7 -3 16 -2 19 1 4 3 -2 6 -13 5 -11 0 -14 -3 -6 -6z"/>
<path d="M1168 1513 c6 -2 18 -2 25 0 6 3 1 5 -13 5 -14 0 -19 -2 -12 -5z"/>
<path d="M605 1461 l-30 -6 -3 -83 -3 -83 31 -12 c16 -6 30 -14 30 -18 0 -10
-30 -20 -41 -13 -5 3 -17 1 -26 -5 -17 -9 -16 -10 2 -10 11 0 31 -2 45 -3 14
-2 25 2 25 9 0 23 13 23 19 0 4 -17 18 -27 58 -40 29 -9 64 -14 78 -11 18 4
21 3 11 -4 -11 -8 -10 -11 6 -16 11 -4 28 -3 38 0 13 5 16 4 11 -4 -5 -8 -2
-10 8 -6 9 3 16 1 16 -6 0 -6 4 -9 10 -5 5 3 17 1 27 -4 44 -24 160 -60 183
-57 96 13 143 15 125 7 -19 -9 -19 -10 3 -10 17 -1 22 4 22 25 0 29 11 28
-117 8 -39 -6 -42 -5 -58 26 -17 33 -15 98 4 128 5 8 63 21 157 33 156 20 186
26 144 29 -23 1 -23 2 -5 10 16 7 17 9 3 9 -9 1 -20 -3 -23 -9 -3 -5 -16 -10
-28 -10 -18 0 -19 2 -7 10 13 8 12 10 -2 10 -10 0 -18 -4 -18 -10 0 -13 -87
-13 -94 -1 -4 5 0 12 6 14 18 7 -59 -2 -107 -13 -69 -15 -228 -22 -220 -10 4
7 -1 6 -14 -2 -16 -9 -27 -10 -49 -2 -20 8 -35 8 -47 1 -14 -8 -17 -7 -13 5 4
8 0 15 -7 15 -7 0 -11 -6 -8 -14 4 -9 -4 -13 -25 -13 l-31 0 2 75 2 75 -30 -1
c-16 -1 -43 -4 -60 -8z m563 -128 c-10 -2 -26 -2 -35 0 -10 3 -2 5 17 5 19 0
27 -2 18 -5z m-233 -93 c3 -5 1 -10 -4 -10 -6 0 -11 5 -11 10 0 6 2 10 4 10 3
0 8 -4 11 -10z m-231 -9 c17 -6 17 -8 3 -14 -8 -3 -21 1 -27 9 -13 15 -6 17
24 5z m49 -28 c-7 -2 -19 -2 -25 0 -7 3 -2 5 12 5 14 0 19 -2 13 -5z"/>
<path d="M1605 1360 c-4 -6 3 -10 14 -10 25 0 27 6 6 13 -8 4 -17 2 -20 -3z"/>
<path d="M1008 1343 c6 -2 18 -2 25 0 6 3 1 5 -13 5 -14 0 -19 -2 -12 -5z"/>
<path d="M1488 1333 c6 -2 18 -2 25 0 6 3 1 5 -13 5 -14 0 -19 -2 -12 -5z"/>
<path d="M1470 1170 c-140 -24 -155 -29 -152 -46 5 -27 8 -28 44 -16 18 7 23
10 11 8 -13 -2 -23 1 -23 6 0 7 15 8 39 4 21 -3 54 -3 72 1 33 7 33 7 9 13
-15 4 4 7 45 7 38 0 71 5 73 11 1 5 13 8 25 5 18 -4 20 -3 7 7 -12 10 -11 11
8 7 14 -3 22 -1 19 6 -5 16 -10 16 -177 -13z"/>
<path d="M507 1164 c-10 -10 -9 -53 3 -95 9 -32 16 -39 61 -53 27 -9 54 -14
59 -11 6 4 10 2 10 -3 0 -5 48 -23 108 -41 59 -18 149 -47 199 -63 51 -17 100
-28 108 -24 9 3 14 2 11 -2 -3 -5 17 -16 45 -24 32 -11 47 -12 42 -5 -4 7 -6
24 -4 39 1 16 -2 28 -9 28 -7 0 -9 8 -5 20 9 27 -10 49 -35 43 -11 -3 -19 -8
-18 -12 2 -18 -4 -21 -23 -10 -15 8 -19 8 -15 0 4 -6 2 -11 -3 -11 -17 0 -13
28 5 38 15 8 15 10 -1 16 -18 7 -38 -1 -31 -12 2 -4 -3 -13 -10 -20 -13 -12
-14 -10 -8 11 4 20 0 29 -20 42 -31 20 -56 14 -56 -15 0 -11 -6 -20 -13 -20
-20 0 -37 22 -37 48 0 33 -24 23 -30 -14 l-6 -29 -7 28 c-4 15 -5 32 -2 38 9
14 -80 51 -113 47 -15 -2 -26 -9 -24 -15 1 -7 -3 -13 -9 -13 -6 0 -9 7 -5 15
8 21 -33 45 -81 48 -23 1 -39 5 -36 10 2 4 -5 7 -16 7 -10 0 -21 5 -23 11 -2
5 -7 7 -11 3z m31 -33 c-2 -5 8 -19 22 -31 l25 -22 -30 4 c-24 2 -31 8 -33 31
-2 15 1 27 7 27 6 0 10 -4 9 -9z m107 -101 c-3 -5 -12 -10 -18 -10 -7 0 -6 4
3 10 19 12 23 12 15 0z"/>
<path d="M720 1130 c0 -5 7 -10 16 -10 8 0 12 5 9 10 -3 6 -10 10 -16 10 -5 0
-9 -4 -9 -10z"/>
<path d="M1165 1080 l-30 -8 33 -1 c17 0 32 4 32 9 0 6 -1 9 -2 9 -2 -1 -16
-5 -33 -9z"/>
<path d="M880 1020 c0 -5 5 -10 11 -10 5 0 7 5 4 10 -3 6 -8 10 -11 10 -2 0
-4 -4 -4 -10z"/>
<path d="M2060 953 c-10 -12 -11 -18 -2 -21 14 -4 16 -32 3 -32 -5 0 -12 6
-15 13 -4 8 -5 7 -4 -3 2 -31 -15 -80 -33 -96 -21 -19 -26 -40 -7 -28 8 5 9 2
5 -10 -4 -10 -7 -20 -7 -22 0 -2 -9 -4 -20 -4 -11 0 -20 -4 -20 -10 0 -5 -4
-10 -10 -10 -5 0 -10 7 -10 15 0 9 10 15 26 15 21 0 25 3 19 18 -4 9 -17 51
-29 92 l-21 75 -3 -45 c-4 -74 -10 -90 -32 -87 -11 2 -23 7 -27 12 -5 4 -2 5
5 1 19 -11 14 8 -9 32 -11 12 -24 20 -29 17 -5 -3 -12 0 -16 6 -5 8 -2 10 7 5
8 -4 1 4 -16 18 -25 22 -31 23 -33 10 -4 -19 31 -70 46 -67 6 1 8 -22 6 -57
-3 -44 1 -63 12 -75 17 -16 19 -14 -31 -30 -33 -10 -15 -34 30 -41 95 -14 207
10 165 36 -12 8 -7 18 30 55 44 45 45 47 48 120 3 53 1 75 -8 75 -7 0 -9 8 -5
20 8 24 5 25 -15 3z m-123 -148 c-4 -8 -11 -15 -17 -15 -6 0 -6 7 2 20 14 22
24 19 15 -5z m28 -25 c3 -5 1 -10 -4 -10 -6 0 -11 5 -11 10 0 6 2 10 4 10 3 0
8 -4 11 -10z m-35 -10 c11 -7 11 -10 2 -10 -10 0 -10 -5 -2 -21 7 -11 8 -28 4
-37 -4 -9 -8 -21 -8 -26 -1 -5 -8 -11 -16 -13 -12 -4 -13 -3 -1 5 11 8 9 11
-9 17 -17 5 -20 12 -15 28 4 12 9 32 12 45 6 24 11 26 33 12z"/>
<path d="M1906 721 c-4 -7 -5 -15 -2 -18 9 -9 19 4 14 18 -4 11 -6 11 -12 0z"/>
<path d="M1628 953 c6 -2 18 -2 25 0 6 3 1 5 -13 5 -14 0 -19 -2 -12 -5z"/>
<path d="M1565 940 c-13 -6 -15 -9 -5 -9 8 0 22 4 30 9 18 12 2 12 -25 0z"/>
<path d="M1518 923 c7 -3 16 -2 19 1 4 3 -2 6 -13 5 -11 0 -14 -3 -6 -6z"/>
<path d="M1455 910 c-13 -5 -14 -9 -5 -9 8 0 24 4 35 9 13 5 14 9 5 9 -8 0
-24 -4 -35 -9z"/>
<path d="M1365 885 c-39 -14 -40 -14 -5 -8 41 7 82 22 60 22 -8 0 -33 -7 -55
-14z"/>
<path d="M1270 860 c-11 -8 -7 -9 15 -4 37 8 45 14 19 14 -10 0 -26 -5 -34
-10z"/>
<path d="M1166 846 c3 -9 16 -16 28 -15 14 0 16 2 6 6 -8 3 -21 10 -28 16 -9
7 -11 6 -6 -7z"/>
<path d="M1228 843 c7 -3 16 -2 19 1 4 3 -2 6 -13 5 -11 0 -14 -3 -6 -6z"/>
<path d="M462 688 c-2 -40 1 -48 16 -48 11 0 13 3 5 8 -6 4 -13 25 -16 47 -4
40 -4 40 -5 -7z"/>
<path d="M460 626 c0 -2 7 -9 15 -16 12 -10 15 -10 15 4 0 9 -7 16 -15 16 -8
0 -15 -2 -15 -4z"/>
<path d="M575 610 c-13 -6 -15 -9 -5 -9 8 0 22 4 30 9 18 12 2 12 -25 0z"/>
<path d="M651 584 c0 -11 3 -14 6 -6 3 7 2 16 -1 19 -3 4 -6 -2 -5 -13z"/>
<path d="M730 560 c8 -5 20 -10 25 -10 6 0 3 5 -5 10 -8 5 -19 10 -25 10 -5 0
-3 -5 5 -10z"/>
<path d="M876 525 c15 -14 29 -25 32 -25 3 0 -5 11 -18 25 -13 14 -27 25 -32
25 -5 0 3 -11 18 -25z"/>
<path d="M265 530 c-10 -16 14 -40 41 -40 19 0 23 5 20 23 -3 24 -49 37 -61
17z"/>
<path d="M347 508 c-4 -12 -5 -24 -3 -25 2 -2 47 -14 99 -27 95 -23 97 -23
103 -4 3 11 4 22 1 25 -4 3 -173 50 -193 53 -1 0 -4 -10 -7 -22z m73 -8 c20
-6 21 -8 5 -8 -11 0 -31 4 -45 8 -20 6 -21 8 -5 8 11 0 31 -4 45 -8z"/>
<path d="M1162 510 c0 -14 2 -19 5 -12 2 6 2 18 0 25 -3 6 -5 1 -5 -13z"/>
<path d="M565 472 c-3 -3 -5 -13 -5 -23 0 -13 12 -21 43 -29 23 -6 58 -15 77
-21 60 -16 82 -12 78 13 -3 19 -16 25 -95 43 -51 12 -95 20 -98 17z"/>
<path d="M1070 470 c0 -5 7 -10 15 -10 8 0 15 5 15 10 0 6 -7 10 -15 10 -8 0
-15 -4 -15 -10z"/>
<path d="M1160 465 c0 -11 5 -27 10 -35 9 -13 10 -13 11 0 0 8 5 4 9 -10 7
-21 8 -21 9 -5 0 11 -8 31 -19 45 -18 23 -20 23 -20 5z"/>
</g>
</svg>
